<svg width="73" height="75" viewBox="0 0 73 75" fill="none" xmlns="http://www.w3.org/2000/svg">
<g clip-path="url(#clip0_103_5)">
<path d="M72.1043 59.9113C64.0429 70.5622 48.8159 76.7752 34.0368 74.5563C16.5705 71.8936 3.13493 59.0237 0.447817 43.0474C-2.2393 25.7397 7.61346 10.651 22.8405 3.55036C38.0674 -3.55023 55.5337 6.72378e-05 66.73 9.31959C58.2208 4.43794 48.8159 3.10658 38.9632 5.7693C29.1104 8.87581 21.9447 14.645 17.4662 23.5208C11.1963 36.3906 15.227 52.3669 26.8711 61.6865C33.5889 66.5681 41.2024 69.2308 49.7116 68.7871C58.2208 68.3433 65.8343 65.2368 72.1043 59.9113Z" fill="#29335C"/>
<path d="M40.3068 45.2664C42.0982 47.9291 43.4417 50.5918 45.2331 53.2545C42.0982 53.2545 38.5153 53.2545 35.3804 53.2545C37.1718 51.0356 38.9632 48.3729 40.3068 45.2664Z" fill="#29335C"/>
<path d="M68.0736 19.5266C69.865 22.1893 71.2086 24.8521 73 27.5148C69.865 27.5148 66.2822 27.5148 63.1472 27.5148C64.4908 25.2958 66.2822 22.6331 68.0736 19.5266Z" fill="#29335C"/>
<path d="M49.2638 32.3965C52.3988 32.3965 55.9816 32.3965 59.1166 32.3965C57.3251 35.0592 55.9816 37.7219 54.1902 40.3847C52.8466 37.7219 51.0552 35.0592 49.2638 32.3965Z" fill="#29335C"/>
</g>
<defs>
<clipPath id="clip0_103_5">
<rect width="73" height="75" fill="white"/>
</clipPath>
</defs>
</svg>
